HIERARCHY
ROOT Hips
{
    OFFSET   0.000000   0.000000   0.000000
    CHANNELS 6 Xposition Yposition Zposition Zrotation Xrotation Yrotation
    JOINT Chest
    {
        OFFSET   0.000000   8.007230   0.000000
        CHANNELS 3 Zrotation Xrotation Yrotation
        JOINT Chest2
        {
            OFFSET   0.000000  22.077100   0.000000
            CHANNELS 3 Zrotation Xrotation Yrotation
            JOINT Neck
            {
                OFFSET   0.000000  23.254700   0.000000
                CHANNELS 3 Zrotation Xrotation Yrotation
                JOINT Head
                {
                    OFFSET   0.000010  14.370000   1.956610
                    CHANNELS 3 Zrotation Xrotation Yrotation
                    End Site
                    {
                        OFFSET   0.000000  19.566000   0.000000
                    }
                }
            }
            JOINT LeftCollar
            {
                OFFSET   3.911900  19.017000  -0.467063
                CHANNELS 3 Zrotation Xrotation Yrotation
                JOINT LeftShoulder
                {
                    OFFSET  10.383700   0.000000   0.000000
                    CHANNELS 3 Zrotation Xrotation Yrotation
                    JOINT LeftElbow
                    {
                        OFFSET  26.662100   0.001671   0.000522
                        CHANNELS 3 Zrotation Xrotation Yrotation
                        JOINT LeftWrist
                        {
                            OFFSET  28.869000   0.000037  -0.000114
                            CHANNELS 3 Zrotation Xrotation Yrotation
                            JOINT LeftFinger0
                            {
                                OFFSET   2.044650  -2.323450   3.252850
                                CHANNELS 3 Zrotation Xrotation Yrotation
                                JOINT LeftFinger01
                                {
                                    OFFSET   3.088140   0.000000   0.000000
                                    CHANNELS 3 Zrotation Xrotation Yrotation
                                    JOINT LeftFinger02
                                    {
                                        OFFSET   2.639460   0.000000   0.000000
                                        CHANNELS 3 Zrotation Xrotation Yrotation
                                        End Site
                                        {
                                            OFFSET   2.582190   0.000000   0.000000
                                        }
                                    }
                                }
                            }
                            JOINT LeftFinger1
                            {
                                OFFSET   8.364480   0.000000   3.252850
                                CHANNELS 3 Zrotation Xrotation Yrotation
                                JOINT LeftFinger11
                                {
                                    OFFSET   4.646930   0.000000   0.000000
                                    CHANNELS 3 Zrotation Xrotation Yrotation
                                    JOINT LeftFinger12
                                    {
                                        OFFSET   2.323470   0.000000   0.000000
                                        CHANNELS 3 Zrotation Xrotation Yrotation
                                        End Site
                                        {
                                            OFFSET   2.273050   0.000000   0.000000
                                        }
                                    }
                                }
                            }
                            JOINT LeftFinger2
                            {
                                OFFSET   8.364490   0.000016   1.078090
                                CHANNELS 3 Zrotation Xrotation Yrotation
                                JOINT LeftFinger21
                                {
                                    OFFSET   5.111620   0.000000   0.000000
                                    CHANNELS 3 Zrotation Xrotation Yrotation
                                    JOINT LeftFinger22
                                    {
                                        OFFSET   2.788150   0.000013   0.000000
                                        CHANNELS 3 Zrotation Xrotation Yrotation
                                        End Site
                                        {
                                            OFFSET   2.727660   0.000000   0.000000
                                        }
                                    }
                                }
                            }
                            JOINT LeftFinger3
                            {
                                OFFSET   7.899780   0.000016  -1.078090
                                CHANNELS 3 Zrotation Xrotation Yrotation
                                JOINT LeftFinger31
                                {
                                    OFFSET   4.646930   0.000000   0.000000
                                    CHANNELS 3 Zrotation Xrotation Yrotation
                                    JOINT LeftFinger32
                                    {
                                        OFFSET   2.323470   0.000000   0.000000
                                        CHANNELS 3 Zrotation Xrotation Yrotation
                                        End Site
                                        {
                                            OFFSET   2.273050   0.000000   0.000000
                                        }
                                    }
                                }
                            }
                            JOINT LeftFinger4
                            {
                                OFFSET   7.435080   0.000000  -3.252850
                                CHANNELS 3 Zrotation Xrotation Yrotation
                                JOINT LeftFinger41
                                {
                                    OFFSET   3.717550   0.000000   0.000000
                                    CHANNELS 3 Zrotation Xrotation Yrotation
                                    JOINT LeftFinger42
                                    {
                                        OFFSET   1.858760   0.000000   0.000000
                                        CHANNELS 3 Zrotation Xrotation Yrotation
                                        End Site
                                        {
                                            OFFSET   1.818440   0.000000   0.000000
                                        }
                                    }
                                }
                            }
                        }
                    }
                }
            }
            JOINT RightCollar
            {
                OFFSET  -3.911900  19.017000  -0.467064
                CHANNELS 3 Zrotation Xrotation Yrotation
                JOINT RightShoulder
                {
                    OFFSET -10.383700   0.000000   0.000000
                    CHANNELS 3 Zrotation Xrotation Yrotation
                    JOINT RightElbow
                    {
                        OFFSET -26.662100   0.001633   0.000260
                        CHANNELS 3 Zrotation Xrotation Yrotation
                        JOINT RightWrist
                        {
                            OFFSET -28.869000  -0.000045  -0.000080
                            CHANNELS 3 Zrotation Xrotation Yrotation
                            JOINT RightFinger0
                            {
                                OFFSET  -2.044660  -2.323490   3.252850
                                CHANNELS 3 Zrotation Xrotation Yrotation
                                JOINT RightFinger01
                                {
                                    OFFSET  -3.088140   0.000000   0.000000
                                    CHANNELS 3 Zrotation Xrotation Yrotation
                                    JOINT RightFinger02
                                    {
                                        OFFSET  -2.639450   0.000000   0.000000
                                        CHANNELS 3 Zrotation Xrotation Yrotation
                                        End Site
                                        {
                                            OFFSET  -2.582190   0.000000   0.000000
                                        }
                                    }
                                }
                            }
                            JOINT RightFinger1
                            {
                                OFFSET  -8.364480   0.000000   3.252850
                                CHANNELS 3 Zrotation Xrotation Yrotation
                                JOINT RightFinger11
                                {
                                    OFFSET  -4.646920   0.000000   0.000000
                                    CHANNELS 3 Zrotation Xrotation Yrotation
                                    JOINT RightFinger12
                                    {
                                        OFFSET  -2.323470   0.000000   0.000000
                                        CHANNELS 3 Zrotation Xrotation Yrotation
                                        End Site
                                        {
                                            OFFSET  -2.273050   0.000000   0.000000
                                        }
                                    }
                                }
                            }
                            JOINT RightFinger2
                            {
                                OFFSET  -8.364480   0.000000   1.078090
                                CHANNELS 3 Zrotation Xrotation Yrotation
                                JOINT RightFinger21
                                {
                                    OFFSET  -5.111610   0.000000   0.000000
                                    CHANNELS 3 Zrotation Xrotation Yrotation
                                    JOINT RightFinger22
                                    {
                                        OFFSET  -2.788160   0.000000   0.000000
                                        CHANNELS 3 Zrotation Xrotation Yrotation
                                        End Site
                                        {
                                            OFFSET  -2.727660   0.000000   0.000000
                                        }
                                    }
                                }
                            }
                            JOINT RightFinger3
                            {
                                OFFSET  -7.899780   0.000000  -1.078090
                                CHANNELS 3 Zrotation Xrotation Yrotation
                                JOINT RightFinger31
                                {
                                    OFFSET  -4.646930   0.000000   0.000000
                                    CHANNELS 3 Zrotation Xrotation Yrotation
                                    JOINT RightFinger32
                                    {
                                        OFFSET  -2.323470   0.000000   0.000000
                                        CHANNELS 3 Zrotation Xrotation Yrotation
                                        End Site
                                        {
                                            OFFSET  -2.273050   0.000000   0.000000
                                        }
                                    }
                                }
                            }
                            JOINT RightFinger4
                            {
                                OFFSET  -7.435090   0.000000  -3.252850
                                CHANNELS 3 Zrotation Xrotation Yrotation
                                JOINT RightFinger41
                                {
                                    OFFSET  -3.717550   0.000000   0.000000
                                    CHANNELS 3 Zrotation Xrotation Yrotation
                                    JOINT RightFinger42
                                    {
                                        OFFSET  -1.858760   0.000000   0.000000
                                        CHANNELS 3 Zrotation Xrotation Yrotation
                                        End Site
                                        {
                                            OFFSET  -1.818440   0.000000   0.000000
                                        }
                                    }
                                }
                            }
                        }
                    }
                }
            }
        }
    }
    JOINT LeftHip
    {
        OFFSET   9.782990   0.000000   0.000000
        CHANNELS 3 Zrotation Xrotation Yrotation
        JOINT LeftKnee
        {
            OFFSET  -0.000063 -41.789100   0.001657
            CHANNELS 3 Zrotation Xrotation Yrotation
            JOINT LeftAnkle
            {
                OFFSET   0.000078 -41.133200  -0.000113
                CHANNELS 3 Zrotation Xrotation Yrotation
                JOINT LeftToe
                {
                    OFFSET   0.000000  -6.358970  14.674500
                    CHANNELS 3 Zrotation Xrotation Yrotation
                    End Site
                    {
                        OFFSET   0.000000   0.000000   3.913200
                    }
                }
            }
        }
    }
    JOINT RightHip
    {
        OFFSET  -9.782990   0.000000   0.000000
        CHANNELS 3 Zrotation Xrotation Yrotation
        JOINT RightKnee
        {
            OFFSET   0.000053 -41.789200   0.000277
            CHANNELS 3 Zrotation Xrotation Yrotation
            JOINT RightAnkle
            {
                OFFSET   0.000030 -41.133200  -0.000150
                CHANNELS 3 Zrotation Xrotation Yrotation
                JOINT RightToe
                {
                    OFFSET   0.000000  -6.358960  14.674500
                    CHANNELS 3 Zrotation Xrotation Yrotation
                    End Site
                    {
                        OFFSET   0.000000   0.000000   3.913200
                    }
                }
            }
        }
    }
}
MOTION
Frames: 4
Frame Time:   0.016667
 -1.020310  89.584400  -0.268153  -3.577690  -9.566840  -2.472570   0.507175   6.496780   0.788964   0.932681  12.999800   1.534560   1.382540  -1.262080   0.031816   2.284150  -2.554650  -2.994340  -5.466260  -2.956250   0.466748 -72.731000  15.711200  -4.321360   0.113278  -1.797880 -18.132700  11.189000  -3.792080   1.467010  36.567400  26.330900 -56.974000 -31.162400   0.000000   0.000330 -10.581200   0.001560   0.000000 -28.760000   5.001940  -9.037170 -23.862900   0.008201   0.001564 -16.704000   0.011869   0.000461 -28.353200  -1.077030   1.994190 -34.940100  -0.001242   0.001375 -23.270100  -0.000396   0.001663 -27.750800  -1.055720   2.005550 -30.611200   0.001515  -0.009559 -20.387000  -0.004579   0.001144 -27.984500  -1.063500   2.001420 -42.004100  -0.001686   0.000945 -27.974800  -0.001272  -0.000000  11.636300  -0.983258   9.147720  66.480100   8.091110  -5.673550  -0.963616  -6.111660  12.434800  -7.971850  -4.255620   4.749730 -40.268400  37.688400  74.747500  30.896100   0.006264  -0.004420  10.459400   0.005895  -0.002748  30.225300   8.965660  14.975600  25.695900  -0.000100  -0.013043  17.996700   0.001550  -0.004079  38.415100   4.758950   5.957630  54.243900  -0.001504  -0.001644  36.862400  -0.016510  -0.002076  34.008800   1.016910   1.506700  51.033500  -0.008078  -0.004803  33.988300  -0.006274  -0.009309  47.614400  -3.610410  -3.289250  71.577200  -0.000116  -0.003464  47.670400  -0.006329   0.003263   4.038530  11.070600   6.584580   0.853824   0.102382   8.914020  -6.149010  -1.360740  -4.079570   0.000000   0.000000   0.000000   4.674760   7.614560   2.240520  -1.967790   6.327340 -10.657200   1.435100  -5.114300   0.994145  -0.000000   0.000000   0.000000
 -1.011220  89.584400  -0.235825  -3.591080  -9.554360  -2.556570   0.511400   6.490740   0.782822   0.941995  12.987700   1.521690   1.382470  -1.273730   0.031782   2.284150  -2.578220  -2.964350  -5.465990  -2.951240   0.472792 -72.740500  15.727400  -4.321170   0.100898  -1.822620 -18.098800  11.173800  -3.765690   1.474880  36.560000  26.359900 -57.017700 -31.187200   0.000000   0.000319 -10.593600   0.001558  -0.000000 -28.759700   5.002070  -9.037220 -23.859500   0.008204   0.001566 -16.701600   0.011867   0.000461 -28.352900  -1.083090   2.005380 -34.940100  -0.001242   0.001374 -23.270100  -0.000399   0.001663 -27.750400  -1.061760   2.016760 -30.629600   0.001515  -0.009560 -20.399300  -0.004578   0.001143 -27.984100  -1.069650   2.012570 -42.004100  -0.001686   0.000946 -27.974800  -0.001273   0.000000  11.635200  -0.976585   9.148330  66.469600   8.104690  -5.650550  -0.995192  -6.108590  12.471400  -7.966230  -4.288950   4.766610 -40.259400  37.692400  74.758900  30.900000   0.006259  -0.004411  10.459400   0.005896  -0.002739  30.230200   8.971060  14.981300  25.700900  -0.000102  -0.013042  17.996700   0.001545  -0.004055  38.483300   4.759070   5.944480  54.248800  -0.001500  -0.001635  36.884000  -0.016516  -0.002081  34.031400   1.016910   1.506430  51.067400  -0.008075  -0.004798  34.010900  -0.006270  -0.009306  47.640700  -3.620180  -3.295070  71.617300  -0.000096  -0.003463  47.697100  -0.006329   0.003265   4.029780  11.116600   6.605230   0.854921   0.052422   8.959260  -6.135240  -1.369940  -4.060090  -0.000000   0.000000  -0.000000   4.672500   7.610530   2.259040  -1.971350   6.338450 -10.626900   1.445410  -5.124360   1.030990  -0.000000   0.000000   0.000000
 -0.997124  89.584500  -0.182810  -3.612460  -9.536570  -2.690540   0.518508   6.482050   0.769986   0.957938  12.970300   1.494980   1.382360  -1.295010   0.031748   2.283830  -2.621280  -2.920180  -5.465360  -2.941940   0.486402 -72.755600  15.751300  -4.318570   0.079837  -1.859280 -18.044500  11.150600  -3.724240   1.484370  36.549600  26.387800 -57.063200 -31.220200   0.000000   0.000308 -10.610100   0.001553   0.000000 -28.757400   5.002260  -9.037290 -23.852000   0.008208   0.001569 -16.696400   0.011864   0.000466 -28.352500  -1.089150   2.016570 -34.940100  -0.001242   0.001374 -23.270100  -0.000401   0.001664 -27.749900  -1.067800   2.027960 -30.647900   0.001518  -0.009563 -20.411500  -0.004578   0.001142 -27.983700  -1.075800   2.023730 -42.004100  -0.001688   0.000947 -27.974800  -0.001276   0.000000  11.632900  -0.962653   9.152670  66.446500   8.126720  -5.610620  -1.051120  -6.093540  12.546400  -7.948450  -4.339860   4.799280 -40.253600  37.704200  74.792300  30.906600   0.006245  -0.004394  10.459500   0.005901  -0.002724  30.238200   8.982680  14.995100  25.709600  -0.000107  -0.013037  17.996700   0.001531  -0.004001  38.609900   4.759300   5.920090  54.257700  -0.001487  -0.001614  36.924100  -0.016531  -0.002096  34.074200   1.016910   1.506160  51.131500  -0.008067  -0.004789  34.053600  -0.006260  -0.009294  47.690400  -3.638710  -3.306080  71.693200  -0.000061  -0.003459  47.747700  -0.006324   0.003268   4.015650  11.186800   6.640550   0.854801   0.001756   9.026630  -6.115650  -1.393320  -4.028060   0.000000   0.000000   0.000000   4.668700   7.602850   2.291960  -1.978170   6.365250 -10.578500   1.461880  -5.145310   1.085910  -0.000000   0.000000  -0.000000
 -0.988012  89.584600  -0.142183  -3.627710  -9.529020  -2.785210   0.524226   6.478770   0.754252   0.971342  12.963700   1.462560   1.382280  -1.317530   0.031830   2.282980  -2.666840  -2.899130  -5.467250  -2.934410   0.504417 -72.766100  15.763200  -4.311430   0.061866  -1.878580 -18.006100  11.135000  -3.695250   1.485410  36.545500  26.386300 -57.065000 -31.228100   0.000000   0.000311 -10.614000   0.001547   0.000000 -28.745500   5.002340  -9.037370 -23.840800   0.008209   0.001567 -16.688600   0.011862   0.000478 -28.352900  -1.086200   2.011240 -34.927200  -0.001244   0.001377 -23.261500  -0.000400   0.001662 -27.750200  -1.064930   2.022590 -30.644300   0.001523  -0.009566 -20.409100  -0.004580   0.001142 -27.976500  -1.072590   2.018530 -41.993100  -0.001689   0.000948 -27.967400  -0.001276  -0.000000  11.631100  -0.948816   9.161920  66.420200   8.145640  -5.565800  -1.098620  -6.072170  12.626600  -7.906560  -4.371990   4.834190 -40.256100  37.726900  74.834200  30.913200   0.006223  -0.004380  10.459400   0.005912  -0.002713  30.249000   8.996100  15.009900  25.719400  -0.000115  -0.013023  18.002300   0.001511  -0.003928  38.745100   4.759540   5.894110  54.266900  -0.001467  -0.001586  36.966600  -0.016557  -0.002120  34.121900   1.018080   1.506830  51.203000  -0.008052  -0.004776  34.101200  -0.006248  -0.009267  47.745100  -3.659080  -3.318140  71.776800  -0.000036  -0.003452  47.803300  -0.006299   0.003254   4.005040  11.229500   6.671010   0.853289   0.000918   9.062680  -6.107560  -1.429670  -4.002820   0.000000   0.000000  -0.000000   4.667470   7.595160   2.323960  -1.985210   6.404190 -10.543600   1.473760  -5.170890   1.114680  -0.000000   0.000000  -0.000000
